<?xml version="1.0" encoding="UTF-8" standalone="no"?>
<!-- Created with Inkscape (http://www.inkscape.org/) -->

<svg
   xmlns:dc="http://purl.org/dc/elements/1.1/"
   xmlns:cc="http://creativecommons.org/ns#"
   xmlns:rdf="http://www.w3.org/1999/02/22-rdf-syntax-ns#"
   xmlns:svg="http://www.w3.org/2000/svg"
   xmlns="http://www.w3.org/2000/svg"
   xmlns:sodipodi="http://sodipodi.sourceforge.net/DTD/sodipodi-0.dtd"
   xmlns:inkscape="http://www.inkscape.org/namespaces/inkscape"
   width="2283.678"
   height="866.00092"
   viewBox="0 0 604.22313 229.12942"
   version="1.1"
   id="svg8"
   sodipodi:docname="logo_white.svg"
   inkscape:version="0.92.4 (5da689c313, 2019-01-14)"
   inkscape:export-filename="E:\Users\Jimmy\Documents\_Actual Documents\LW logo\test 100000.png"
   inkscape:export-xdpi="45.400452"
   inkscape:export-ydpi="45.400452">
  <defs
     id="defs2">
    <filter
       style="color-interpolation-filters:sRGB"
       inkscape:label="Drop Shadow"
       id="filter1554">
      <feFlood
         flood-opacity="0.498039"
         flood-color="rgb(0,0,0)"
         result="flood"
         id="feFlood1544" />
      <feComposite
         in="flood"
         in2="SourceGraphic"
         operator="in"
         result="composite1"
         id="feComposite1546" />
      <feGaussianBlur
         in="composite1"
         stdDeviation="4.1"
         result="blur"
         id="feGaussianBlur1548" />
      <feOffset
         dx="0"
         dy="0"
         result="offset"
         id="feOffset1550" />
      <feComposite
         in="offset"
         in2="SourceGraphic"
         operator="out"
         result="composite2"
         id="feComposite1552" />
    </filter>
    <filter
       style="color-interpolation-filters:sRGB"
       inkscape:label="Drop Shadow"
       id="filter1710">
      <feFlood
         flood-opacity="0.498039"
         flood-color="rgb(0,0,0)"
         result="flood"
         id="feFlood1700" />
      <feComposite
         in="flood"
         in2="SourceGraphic"
         operator="in"
         result="composite1"
         id="feComposite1702" />
      <feGaussianBlur
         in="composite1"
         stdDeviation="0.7"
         result="blur"
         id="feGaussianBlur1704" />
      <feOffset
         dx="0"
         dy="0"
         result="offset"
         id="feOffset1706" />
      <feComposite
         in="offset"
         in2="SourceGraphic"
         operator="out"
         result="composite2"
         id="feComposite1708" />
    </filter>
    <filter
       style="color-interpolation-filters:sRGB"
       inkscape:label="Drop Shadow"
       id="filter1812">
      <feFlood
         flood-opacity="0.498039"
         flood-color="rgb(0,0,0)"
         result="flood"
         id="feFlood1802" />
      <feComposite
         in="flood"
         in2="SourceGraphic"
         operator="in"
         result="composite1"
         id="feComposite1804" />
      <feGaussianBlur
         in="composite1"
         stdDeviation="0.7"
         result="blur"
         id="feGaussianBlur1806" />
      <feOffset
         dx="0"
         dy="0"
         result="offset"
         id="feOffset1808" />
      <feComposite
         in="SourceGraphic"
         in2="offset"
         operator="over"
         result="composite2"
         id="feComposite1810" />
    </filter>
    <filter
       style="color-interpolation-filters:sRGB"
       inkscape:label="Drop Shadow"
       id="filter1908">
      <feFlood
         flood-opacity="0.498039"
         flood-color="rgb(0,0,0)"
         result="flood"
         id="feFlood1898" />
      <feComposite
         in="flood"
         in2="SourceGraphic"
         operator="in"
         result="composite1"
         id="feComposite1900" />
      <feGaussianBlur
         in="composite1"
         stdDeviation="3.64583"
         result="blur"
         id="feGaussianBlur1902" />
      <feOffset
         dx="0"
         dy="0"
         result="offset"
         id="feOffset1904" />
      <feComposite
         in="SourceGraphic"
         in2="offset"
         operator="over"
         result="composite2"
         id="feComposite1906" />
    </filter>
  </defs>
  <sodipodi:namedview
     id="base"
     pagecolor="#ffffff"
     bordercolor="#666666"
     borderopacity="1.0"
     inkscape:pageopacity="0.0"
     inkscape:pageshadow="2"
     inkscape:zoom="0.25"
     inkscape:cx="1995.9569"
     inkscape:cy="913.28562"
     inkscape:document-units="px"
     inkscape:current-layer="layer1"
     showgrid="false"
     inkscape:window-width="1366"
     inkscape:window-height="705"
     inkscape:window-x="-8"
     inkscape:window-y="-8"
     inkscape:window-maximized="1"
     units="px"
     fit-margin-top="0"
     fit-margin-left="0"
     fit-margin-right="0"
     fit-margin-bottom="0" />
  <metadata
     id="metadata5">
    <rdf:RDF>
      <cc:Work
         rdf:about="">
        <dc:format>image/svg+xml</dc:format>
        <dc:type
           rdf:resource="http://purl.org/dc/dcmitype/StillImage" />
        <dc:title></dc:title>
      </cc:Work>
    </rdf:RDF>
  </metadata>
  <g
     inkscape:label="Layer 1"
     inkscape:groupmode="layer"
     id="layer1"
     transform="translate(-2.2207607e-6,-67.870593)">
    <g
       id="g853-9-8"
       transform="matrix(6.3506518,0,0,6.3506518,1056.9317,1253.1885)"
       inkscape:export-xdpi="143.66728"
       inkscape:export-ydpi="143.66728"
       inkscape:export-filename="E:\Users\Jimmy\Documents\_Actual Documents\LW logo\PNGs\Mouse Hat Games_Logic World Logo_full black.png"
       style="fill:#ffffff;fill-opacity:1;filter:url(#filter1812)">
      <path
         d="m -89.324978,-182.37744 c -7.594037,0 -13.772002,6.17815 -13.772002,13.77219 0,7.59384 6.177965,13.77239 13.772002,13.77239 7.594038,0 13.772,-6.17855 13.772,-13.77239 0,-7.59404 -6.177962,-13.77219 -13.772,-13.77219 z m 0,28.80539 c -8.289233,0 -15.033002,-6.74397 -15.033002,-15.0332 0,-8.28923 6.743769,-15.03319 15.033002,-15.03319 8.289234,0 15.033004,6.74396 15.033004,15.03319 0,8.28923 -6.74377,15.0332 -15.033004,15.0332"
         style="fill:#ffffff;fill-opacity:1;fill-rule:nonzero;stroke:none;stroke-width:0.01945692"
         id="path226-1-5"
         inkscape:connector-curvature="0"
         inkscape:export-xdpi="96"
         inkscape:export-ydpi="96" />
      <path
         sodipodi:type="inkscape:offset"
         inkscape:radius="0"
         inkscape:original="M -89.5 -180.48047 L -91.519531 -179.13477 C -91.531211 -179.12677 -91.542411 -179.11913 -91.550781 -179.11133 C -91.559681 -179.10433 -91.567412 -179.09699 -91.576172 -179.08789 C -91.589402 -179.07429 -91.601208 -179.05932 -91.611328 -179.04492 L -91.630859 -179.01562 C -91.640979 -178.99773 -91.649427 -178.97904 -91.654297 -178.96484 L -91.666016 -178.93164 C -91.674216 -178.90104 -91.677734 -178.86984 -91.677734 -178.83984 L -91.677734 -173.91992 L -95.777344 -171.18555 L -95.798828 -171.20117 L -95.798828 -171.17188 L -95.826172 -171.1543 C -95.830672 -171.1513 -95.835224 -171.14763 -95.839844 -171.14453 C -95.847444 -171.13953 -95.853938 -171.13275 -95.861328 -171.12695 C -95.869328 -171.11995 -95.876986 -171.11247 -95.884766 -171.10547 C -95.891566 -171.09947 -95.89983 -171.09274 -95.90625 -171.08594 C -95.91365 -171.07794 -95.918971 -171.0708 -95.925781 -171.0625 C -95.931581 -171.0555 -95.938099 -171.04842 -95.943359 -171.04102 C -95.949759 -171.03202 -95.954908 -171.02277 -95.960938 -171.01367 C -95.965838 -171.00667 -95.970299 -170.99803 -95.974609 -170.99023 C -95.980009 -170.98023 -95.985374 -170.97114 -95.990234 -170.96094 C -95.993734 -170.95294 -95.998843 -170.9454 -96.001953 -170.9375 C -96.006653 -170.9266 -96.008039 -170.9156 -96.011719 -170.9043 C -96.014019 -170.8963 -96.017531 -170.88886 -96.019531 -170.88086 C -96.022831 -170.86836 -96.025144 -170.8548 -96.027344 -170.8418 C -96.028327 -170.8348 -96.03025 -170.82917 -96.03125 -170.82227 C -96.03375 -170.80217 -96.035156 -170.78212 -96.035156 -170.76172 L -96.035156 -162.27344 C -96.035156 -162.11545 -95.957508 -161.96862 -95.826172 -161.88086 L -89.458984 -157.63672 C -89.455084 -157.63472 -89.451136 -157.63186 -89.447266 -157.63086 C -89.442566 -157.62786 -89.438604 -157.62509 -89.433594 -157.62109 L -89.433594 -157.58984 L -89.408203 -157.60742 C -89.407265 -157.60742 -89.405297 -157.60747 -89.404297 -157.60547 C -89.375497 -157.59277 -89.345203 -157.58212 -89.314453 -157.57422 C -89.307853 -157.57222 -89.301732 -157.57036 -89.294922 -157.56836 C -89.263202 -157.56236 -89.231909 -157.55859 -89.199219 -157.55859 C -89.166529 -157.55859 -89.133086 -157.56226 -89.101562 -157.56836 C -89.094962 -157.57036 -89.088651 -157.57222 -89.082031 -157.57422 C -89.051291 -157.58222 -89.020987 -157.59277 -88.992188 -157.60547 C -88.991338 -157.60747 -88.989181 -157.60742 -88.988281 -157.60742 L -88.962891 -157.58984 L -88.962891 -157.62109 C -88.958191 -157.62409 -88.954039 -157.62686 -88.949219 -157.63086 C -88.945319 -157.63286 -88.94136 -157.63572 -88.9375 -157.63672 L -85.107422 -160.19141 L -84.646484 -159.88281 C -84.636584 -159.87681 -84.624761 -159.875 -84.613281 -159.875 C -84.601801 -159.875 -84.591961 -159.87681 -84.582031 -159.88281 L -81.580078 -161.88477 C -81.563738 -161.89547 -81.554684 -161.91399 -81.554688 -161.93359 L -81.554688 -165.85742 C -81.554688 -165.87712 -81.563738 -165.89545 -81.580078 -165.90625 L -82.361328 -166.42578 L -82.361328 -170.76172 C -82.361328 -170.78212 -82.362534 -170.80227 -82.365234 -170.82227 C -82.366083 -170.82927 -82.368141 -170.8351 -82.369141 -170.8418 C -82.371641 -170.8553 -82.373653 -170.86806 -82.376953 -170.88086 C -82.378953 -170.88886 -82.382466 -170.89494 -82.384766 -170.90234 C -82.388466 -170.91404 -82.392004 -170.9264 -82.396484 -170.9375 C -82.399584 -170.9455 -82.40255 -170.95294 -82.40625 -170.96094 C -82.41095 -170.97094 -82.416385 -170.98033 -82.421875 -170.99023 C -82.426375 -170.99823 -82.430647 -171.00607 -82.435547 -171.01367 C -82.440947 -171.02267 -82.446905 -171.03066 -82.453125 -171.03906 C -82.458725 -171.04706 -82.464673 -171.0553 -82.470703 -171.0625 C -82.477303 -171.0705 -82.483234 -171.07854 -82.490234 -171.08594 C -82.497034 -171.09294 -82.504509 -171.09887 -82.511719 -171.10547 C -82.518919 -171.11247 -82.527376 -171.1186 -82.535156 -171.125 C -82.542756 -171.131 -82.550814 -171.13873 -82.558594 -171.14453 C -82.563294 -171.14753 -82.565873 -171.1513 -82.570312 -171.1543 L -82.597656 -171.17188 L -82.621094 -171.18555 L -86.931641 -174.06055 L -86.931641 -178.83984 C -86.931641 -178.95834 -86.989439 -179.06881 -87.087891 -179.13477 L -89.109375 -180.48047 C -89.228452 -180.55987 -89.380534 -180.55947 -89.5 -180.48047 z M -89.304688 -179.76172 L -87.921875 -178.83984 L -89.304688 -177.91797 L -90.685547 -178.83984 L -89.304688 -179.76172 z M -87.638672 -178.17969 L -87.638672 -171.07617 L -88.951172 -170.20117 L -88.951172 -177.30469 L -87.638672 -178.17969 z M -86.931641 -172.92578 L -83.683594 -170.76172 L -89.199219 -167.08398 L -92.03125 -168.97266 L -94.712891 -170.76172 L -91.677734 -172.78516 L -91.677734 -170.88672 C -91.677734 -170.76822 -91.618182 -170.65756 -91.519531 -170.5918 L -89.5 -169.24609 C -89.47607 -169.22999 -89.45287 -169.22084 -89.4375 -169.21484 L -89.408203 -169.20117 C -89.374933 -169.19117 -89.339909 -169.18555 -89.304688 -169.18555 C -89.273948 -169.18555 -89.243424 -169.18942 -89.208984 -169.19922 L -89.179688 -169.21094 C -89.164708 -169.21594 -89.150919 -169.22112 -89.136719 -169.22852 L -87.087891 -170.5918 C -86.989441 -170.6574 -86.931641 -170.76843 -86.931641 -170.88672 L -86.931641 -172.92578 z M -83.304688 -169.87891 L -83.304688 -167.05469 L -84.417969 -167.79883 L -84.419922 -167.79883 L -84.582031 -167.90625 C -84.601881 -167.91925 -84.626634 -167.91925 -84.646484 -167.90625 L -87.648438 -165.90625 C -87.665166 -165.89535 -87.673828 -165.87702 -87.673828 -165.85742 L -87.673828 -161.93359 C -87.673828 -161.91389 -87.665197 -161.89537 -87.648438 -161.88477 L -85.957031 -160.75781 L -88.726562 -158.91016 L -88.726562 -166.26562 L -83.304688 -169.87891 z M -84.613281 -167.07812 L -82.544922 -165.69922 L -84.613281 -164.32031 L -86.683594 -165.69922 L -84.613281 -167.07812 z M -82.261719 -165.03906 L -82.261719 -162.2793 L -84.259766 -160.94727 L -84.259766 -163.70508 L -82.261719 -165.03906 z "
         style="fill:#ffffff;fill-opacity:1;fill-rule:nonzero;stroke:none;stroke-width:0.01945692"
         id="path228-2-6"
         d="m -89.5,-180.48047 -2.019531,1.3457 c -0.01168,0.008 -0.02288,0.0156 -0.03125,0.0234 -0.0089,0.007 -0.01663,0.0143 -0.02539,0.0234 -0.01323,0.0136 -0.02504,0.0286 -0.03516,0.043 l -0.01953,0.0293 c -0.01012,0.0179 -0.01857,0.0366 -0.02344,0.0508 l -0.01172,0.0332 c -0.0082,0.0306 -0.01172,0.0618 -0.01172,0.0918 v 4.91992 l -4.09961,2.73437 -0.02148,-0.0156 v 0.0293 l -0.02734,0.0176 c -0.0045,0.003 -0.0091,0.007 -0.01367,0.01 -0.0076,0.005 -0.01409,0.0118 -0.02148,0.0176 -0.008,0.007 -0.01566,0.0145 -0.02344,0.0215 -0.0068,0.006 -0.01506,0.0127 -0.02148,0.0195 -0.0074,0.008 -0.01272,0.0151 -0.01953,0.0234 -0.0058,0.007 -0.01232,0.0141 -0.01758,0.0215 -0.0064,0.009 -0.01155,0.0182 -0.01758,0.0274 -0.0049,0.007 -0.0094,0.0156 -0.01367,0.0234 -0.0054,0.01 -0.01076,0.0191 -0.01563,0.0293 -0.0035,0.008 -0.0086,0.0155 -0.01172,0.0234 -0.0047,0.0109 -0.0061,0.0219 -0.0098,0.0332 -0.0023,0.008 -0.0058,0.0154 -0.0078,0.0234 -0.0033,0.0125 -0.0056,0.0261 -0.0078,0.0391 -9.83e-4,0.007 -0.0029,0.0126 -0.0039,0.0195 -0.0025,0.0201 -0.0039,0.0402 -0.0039,0.0606 v 8.48828 c 0,0.15799 0.07765,0.30482 0.208984,0.39258 l 6.367188,4.24414 c 0.0039,0.002 0.0078,0.005 0.01172,0.006 0.0047,0.003 0.0087,0.006 0.01367,0.01 v 0.0312 l 0.02539,-0.0176 c 9.38e-4,0 0.0029,-5e-5 0.0039,0.002 0.0288,0.0127 0.05909,0.0233 0.08984,0.0312 0.0066,0.002 0.01272,0.004 0.01953,0.006 0.03172,0.006 0.06301,0.01 0.0957,0.01 0.03269,0 0.06613,-0.004 0.09766,-0.01 0.0066,-0.002 0.01291,-0.004 0.01953,-0.006 0.03074,-0.008 0.06104,-0.0186 0.08984,-0.0312 8.5e-4,-0.002 0.003,-0.002 0.0039,-0.002 l 0.02539,0.0176 v -0.0312 c 0.0047,-0.003 0.0089,-0.006 0.01367,-0.01 0.0039,-0.002 0.0079,-0.005 0.01172,-0.006 l 3.830078,-2.55469 0.460938,0.3086 c 0.0099,0.006 0.02172,0.008 0.0332,0.008 0.01148,0 0.02132,-0.002 0.03125,-0.008 l 3.001953,-2.00196 c 0.01634,-0.0107 0.02539,-0.0292 0.02539,-0.0488 v -3.92383 c 0,-0.0197 -0.0091,-0.038 -0.02539,-0.0488 l -0.78125,-0.51953 v -4.33594 c 0,-0.0204 -0.0012,-0.0405 -0.0039,-0.0606 -8.49e-4,-0.007 -0.0029,-0.0128 -0.0039,-0.0195 -0.0025,-0.0135 -0.0045,-0.0263 -0.0078,-0.0391 -0.002,-0.008 -0.0055,-0.0141 -0.0078,-0.0215 -0.0037,-0.0117 -0.0072,-0.0241 -0.01172,-0.0352 -0.0031,-0.008 -0.0061,-0.0154 -0.0098,-0.0234 -0.0047,-0.01 -0.01014,-0.0194 -0.01563,-0.0293 -0.0045,-0.008 -0.0088,-0.0158 -0.01367,-0.0234 -0.0054,-0.009 -0.01136,-0.017 -0.01758,-0.0254 -0.0056,-0.008 -0.01155,-0.0162 -0.01758,-0.0234 -0.0066,-0.008 -0.01253,-0.016 -0.01953,-0.0234 -0.0068,-0.007 -0.01427,-0.0129 -0.02148,-0.0195 -0.0072,-0.007 -0.01566,-0.0131 -0.02344,-0.0195 -0.0076,-0.006 -0.01566,-0.0137 -0.02344,-0.0195 -0.0047,-0.003 -0.0073,-0.007 -0.01172,-0.01 l -0.02734,-0.0176 -0.02344,-0.0137 -4.310547,-2.875 v -4.77929 c 0,-0.1185 -0.0578,-0.22897 -0.15625,-0.29493 l -2.021484,-1.3457 c -0.119077,-0.0794 -0.271159,-0.079 -0.390625,0 z m 0.195312,0.71875 1.382813,0.92188 -1.382813,0.92187 -1.380859,-0.92187 z m 1.666016,1.58203 v 7.10352 l -1.3125,0.875 v -7.10352 z m 0.707031,5.25391 3.248047,2.16406 -5.515625,3.67774 -2.832031,-1.88868 -2.681641,-1.78906 3.035157,-2.02344 v 1.89844 c 0,0.1185 0.05955,0.22916 0.158203,0.29492 l 2.019531,1.34571 c 0.02393,0.0161 0.04713,0.0252 0.0625,0.0312 l 0.0293,0.0137 c 0.03327,0.01 0.06829,0.0156 0.103515,0.0156 0.03074,0 0.06126,-0.004 0.0957,-0.0137 l 0.0293,-0.0117 c 0.01498,-0.005 0.02877,-0.0102 0.04297,-0.0176 l 2.048828,-1.36328 c 0.09845,-0.0656 0.15625,-0.17663 0.15625,-0.29492 z m 3.626953,3.04687 v 2.82422 l -1.113281,-0.74414 h -0.002 l -0.162109,-0.10742 c -0.01985,-0.013 -0.0446,-0.013 -0.06445,0 l -3.001954,2 c -0.01673,0.0109 -0.02539,0.0292 -0.02539,0.0488 v 3.92383 c 0,0.0197 0.0086,0.0382 0.02539,0.0488 l 1.691407,1.12696 -2.769531,1.84765 v -7.35546 z m -1.308593,2.80079 2.068359,1.3789 -2.068359,1.37891 -2.070313,-1.37891 z m 2.351562,2.03906 v 2.75976 l -1.998047,1.33203 v -2.75781 z"
         transform="matrix(1.1383425,0,0,1,12.284108,0)" />
    </g>
    <g
       aria-label="logic world"
       style="font-style:normal;font-variant:normal;font-weight:normal;font-stretch:normal;font-size:75.74167633px;line-height:1.25;font-family:'Just Die Already';-inkscape-font-specification:'Just Die Already';letter-spacing:0px;word-spacing:0px;fill:#ffffff;fill-opacity:1;stroke:none;stroke-width:1.89354181;filter:url(#filter1908)"
       id="text859-0-6"
       transform="matrix(1.1980163,0,0,1.1980163,-424.58286,150.36095)"
       inkscape:export-filename="E:\Users\Jimmy\Documents\_Actual Documents\LW logo\PNGs\Mouse Hat Games_Logic World Logo_full black.png"
       inkscape:export-xdpi="143.66728"
       inkscape:export-ydpi="143.66728">
      <path
         d="m 432.76403,-42.435868 h 8.25584 V 9.8258871 l 32.56892,-0.07574 v 8.7860339 h -40.97625 v -60.290378 q 0,-0.60593 0.15149,-0.68167 z"
         style="font-style:normal;font-variant:normal;font-weight:normal;font-stretch:normal;font-family:'Just Die Already';-inkscape-font-specification:'Just Die Already';fill:#ffffff;fill-opacity:1;stroke-width:1.89354181"
         id="path861-6-8"
         inkscape:connector-curvature="0" />
      <path
         d="m 496.00123,-32.286488 q -2.27225,1.13613 -4.31728,2.95393 -2.04503,1.74206 -3.6356,4.09005 -1.51483,2.27225 -2.49948,5.074692 -0.98464,2.802442 -1.21186,5.832109 -0.0757,1.136125 -0.0757,2.196508 0,2.8781841 0.60593,5.4534011 0.75742,3.6356 2.27225,6.51378402 1.59057,2.87818398 3.71134,5.07469198 2.19651,2.196509 4.69599,3.408376 3.55985,1.8177999 6.96823,2.0450249 0.60593,0.07574 1.21187,0.07574 2.7267,0 5.30191,-0.9088999 3.10541,-0.984642 5.68063,-3.029667 2.65096,-2.120767 4.5445,-4.923209 1.89354,-2.878184 2.95393,-6.286559 1.13612,-3.408376 1.13612,-7.0439761 0,-4.620243 -1.59057,-8.786035 -1.51484,-4.241533 -4.31728,-7.346943 -2.7267,-3.10541 -6.58953,-4.77173 -3.1054,-1.21186 -6.58952,-1.21186 -0.98464,0 -2.04503,0.0757 -2.12076,0.22722 -3.55986,0.60593 -1.43909,0.30297 -2.65095,0.9089 z m 6.21081,-9.92216 q 1.06039,-0.0757 2.12077,-0.0757 2.34799,0 4.46876,0.45445 3.10541,0.68168 5.68062,2.04503 2.65096,1.28761 4.84747,3.02966 2.19651,1.74206 4.01431,3.6356 1.74206,1.81781 3.25689,4.24154 1.59058,2.34799 2.7267,5.15043 1.13613,2.726703 1.74206,5.75637 0.68168,3.029667 0.68168,6.210818 -0.0757,6.8167511 -2.49948,12.19441012 -2.34799,5.30191698 -5.68062,8.93751698 -3.6356,4.0143089 -8.63456,6.5895259 -4.99895,2.575217 -11.20976,2.575217 -6.28656,0 -11.28551,-2.650959 -4.99895,-2.650958 -8.55881,-6.7410089 -3.40838,-3.862825 -5.68063,-9.01325898 -2.27225,-5.22617602 -2.27225,-12.11866812 0,-5.150434 1.43909,-9.619193 1.43909,-4.5445 3.93857,-8.25584 2.49948,-3.71135 5.83211,-6.3623 3.33263,-2.7267 7.11972,-4.24154 1.8178,-0.75741 3.6356,-1.13612 1.89354,-0.45445 4.31727,-0.60594 z"
         style="font-style:normal;font-variant:normal;font-weight:normal;font-stretch:normal;font-family:'Just Die Already';-inkscape-font-specification:'Just Die Already';fill:#ffffff;fill-opacity:1;stroke-width:1.89354181"
         id="path863-6-7"
         inkscape:connector-curvature="0" />
      <path
         d="m 582.63432,-26.454378 q -1.43909,-1.28761 -2.95392,-2.57521 -1.4391,-1.28761 -3.10541,-2.348 -1.59058,-1.06038 -3.55986,-1.74206 -1.96929,-0.75741 -4.39302,-0.9089 h -1.06038 q -3.78709,0 -6.96824,1.36335 -3.6356,1.66632 -6.3623,4.46876 -2.65096,2.7267 -4.24153,6.362305 -1.59058,3.6356 -1.89354,7.498426 -0.0757,1.136125 -0.0757,2.27225 0,3.7113421 0.98464,7.0439761 1.21186,4.39301702 3.71134,7.725651 2.57522,3.256892 6.13507,5.301917 3.55986,1.969284 7.8014,2.1965089 h 1.28761 q 3.1054,0 5.75636,-0.9088999 3.18115,-1.136125 5.68063,-3.559859 V -4.8679979 H 566.27416 V -13.275324 H 587.7848 V 8.3110541 q 0,0.605933 -0.45445,1.211867 -0.37871,0.6059329 -0.98465,1.1361249 -0.60593,0.530192 -1.21186,0.984642 -0.60594,0.45445 -0.98465,0.757416 -3.1054,2.650959 -6.96823,4.393018 -3.86282,1.742058 -9.61919,1.742058 -3.25689,0 -6.13508,-0.681675 -2.87818,-0.757417 -5.37766,-1.969284 -2.49947,-1.287608 -4.62024,-2.953925 -2.12077,-1.666317 -3.71134,-3.5598589 -3.40838,-3.862825 -5.75637,-9.31622598 -2.27225,-5.45340102 -2.27225,-11.81570112 0,-6.513785 2.12077,-11.664219 2.19651,-5.226179 5.4534,-9.088999 2.49947,-2.95393 6.05933,-5.30192 3.55986,-2.34799 7.8014,-3.55986 3.25689,-0.9089 6.741,-0.9089 0.98465,0 2.04503,0.0757 4.5445,0.37871 9.24048,2.80245 1.74206,0.9089 3.55986,2.12076 1.8178,1.21187 3.55986,2.87819 0.15149,0.15148 0.45445,0.45445 0.37871,0.30296 0.68168,0.60593 0.37871,0.30297 0.60593,0.53019 l 0.22723,0.30297 q -0.15149,0.15148 -0.5302,0.60593 -0.3787,0.37871 -0.83315,0.83316 -0.37871,0.45445 -0.83316,0.9089 -0.37871,0.45445 -0.60594,0.68168 -0.9089,0.9089 -1.51483,1.59057 -0.53019,0.68168 -1.28761,1.43909 z"
         style="font-style:normal;font-variant:normal;font-weight:normal;font-stretch:normal;font-family:'Just Die Already';-inkscape-font-specification:'Just Die Already';fill:#ffffff;fill-opacity:1;stroke-width:1.89354181"
         id="path865-9-6"
         inkscape:connector-curvature="0" />
      <path
         d="m 599.04423,-42.435868 h 8.1801 v 60.820565 h -8.40732 v -60.669085 q 0,-0.15148 0.22722,-0.15148 z"
         style="font-style:normal;font-variant:normal;font-weight:normal;font-stretch:normal;font-family:'Just Die Already';-inkscape-font-specification:'Just Die Already';fill:#ffffff;fill-opacity:1;stroke-width:1.89354181"
         id="path867-1-0"
         inkscape:connector-curvature="0" />
      <path
         d="m 664.42468,-32.665198 q -0.30297,0.30297 -1.13613,1.36336 -0.83316,0.98464 -1.74206,2.12076 -0.9089,1.13613 -1.66631,1.96929 -0.68168,0.68167 -0.9089,0.68167 h -0.0758 q -0.3787,-0.37871 -1.59057,-1.59057 -1.21187,-1.21187 -3.18115,-2.49948 -1.96929,-1.28761 -4.69599,-2.27225 -2.7267,-1.06038 -6.13507,-1.06038 -4.24154,0.0757 -7.87714,1.96928 -3.6356,1.89354 -6.28656,5.22618 -2.57521,3.256888 -3.86282,7.649905 -1.06038,3.484117 -1.06038,7.346943 0,1.060383 0.0757,2.1965081 0.22722,3.787084 1.8178,7.422685 1.59057,3.6356 4.24153,6.513784 2.65096,2.802442 6.28656,4.468759 3.10541,1.4390909 6.89249,1.4390909 h 1.06039 q 2.42373,-0.07574 4.39301,-0.7574159 1.96929,-0.681675 3.55986,-1.666317 1.66632,-1.060384 3.10541,-2.347992 1.43909,-1.36335 2.7267,-2.802442 1.51484,1.36335 2.95393,2.878184 1.43909,1.439091 3.10541,2.7267 -1.96929,2.1965079 -4.09005,4.0900499 -2.04503,1.817801 -4.54451,3.256892 -2.49947,1.363351 -5.52914,2.120767 -3.02966,0.757417 -6.81675,0.757417 -5.90785,0 -10.9068,-2.423733 -4.92321,-2.423734 -8.63455,-6.4380429 -3.6356,-4.09005 -5.75637,-9.39196798 -2.12077,-5.30191702 -2.27225,-11.13402612 v -0.9089 q 0,-5.907851 1.89354,-10.982543 2.04503,-5.377655 5.4534,-9.467705 3.2569,-4.09006 7.64991,-6.66527 4.46876,-2.65096 10.9068,-3.25689 1.36335,-0.15149 2.65096,-0.15149 2.49948,0 4.62025,0.45445 3.25689,0.75742 5.98359,2.12077 2.7267,1.36335 4.99895,3.25689 2.27225,1.8178 4.39302,3.78708 z"
         style="font-style:normal;font-variant:normal;font-weight:normal;font-stretch:normal;font-family:'Just Die Already';-inkscape-font-specification:'Just Die Already';fill:#ffffff;fill-opacity:1;stroke-width:1.89354181"
         id="path869-3-9"
         inkscape:connector-curvature="0" />
      <path
         d="m 382.80039,34.940348 h 9.01747 q 1.97751,8.48306 3.71773,17.04187 1.7402,8.558814 3.71773,17.041881 3.79683,-7.043976 7.27725,-14.239435 3.55953,-7.271196 7.35636,-14.390916 3.79683,7.04397 7.19816,14.315175 3.48042,7.195459 7.19815,14.315176 2.13573,-8.407326 3.95503,-16.890391 1.89843,-8.48307 3.71773,-17.19336 h 9.25478 q -3.32223,15.14833 -6.32805,30.296668 -3.00583,15.072593 -6.32805,30.145187 -4.74604,-9.01326 -9.33388,-18.102261 -4.58783,-9.089001 -9.09657,-18.405227 -4.98333,9.013259 -9.57117,18.253744 -4.50874,9.164743 -9.17568,18.480969 -3.40133,-14.996852 -6.40715,-30.220929 -2.92672,-15.224081 -6.16984,-30.448151 z"
         style="font-style:normal;font-variant:normal;font-weight:normal;font-stretch:normal;font-family:'Just Die Already';-inkscape-font-specification:'Just Die Already';fill:#ffffff;fill-opacity:1;stroke-width:1.93507326"
         id="path871-6-0"
         inkscape:connector-curvature="0" />
      <path
         d="m 470.29546,45.165468 q -2.27225,1.13613 -4.31727,2.95393 -2.04503,1.74206 -3.6356,4.09005 -1.51484,2.27225 -2.49948,5.074692 -0.98464,2.802442 -1.21187,5.832109 -0.0757,1.136125 -0.0757,2.196508 0,2.878184 0.60594,5.453401 0.75741,3.6356 2.27225,6.513784 1.59057,2.878184 3.71134,5.074692 2.19651,2.196509 4.69598,3.408376 3.55986,1.8178 6.96824,2.045025 0.60593,0.07574 1.21186,0.07574 2.7267,0 5.30192,-0.9089 3.10541,-0.984642 5.68063,-3.029667 2.65095,-2.120767 4.5445,-4.923209 1.89354,-2.878184 2.95392,-6.286559 1.13613,-3.408376 1.13613,-7.043976 0,-4.620243 -1.59058,-8.786035 -1.51483,-4.241533 -4.31727,-7.346943 -2.7267,-3.10541 -6.58953,-4.77173 -3.10541,-1.21186 -6.58953,-1.21186 -0.98464,0 -2.04502,0.0757 -2.12077,0.22722 -3.55986,0.60593 -1.43909,0.30297 -2.65096,0.9089 z m 6.21082,-9.92216 q 1.06038,-0.0757 2.12077,-0.0757 2.34799,0 4.46876,0.45445 3.1054,0.68168 5.68062,2.04503 2.65096,1.28761 4.84747,3.02966 2.19651,1.74206 4.01431,3.6356 1.74206,1.81781 3.25689,4.24154 1.59057,2.34799 2.7267,5.15043 1.13612,2.726703 1.74206,5.75637 0.68167,3.029667 0.68167,6.210818 -0.0757,6.816751 -2.49947,12.19441 -2.34799,5.301917 -5.68063,8.937517 -3.6356,4.014309 -8.63455,6.589526 -4.99895,2.575217 -11.20977,2.575217 -6.28656,0 -11.28551,-2.650959 -4.99895,-2.650958 -8.55881,-6.741009 -3.40837,-3.862825 -5.68062,-9.013259 -2.27225,-5.226176 -2.27225,-12.118668 0,-5.150434 1.43909,-9.619193 1.43909,-4.5445 3.93857,-8.25584 2.49947,-3.71135 5.83211,-6.3623 3.33263,-2.7267 7.11971,-4.24154 1.8178,-0.75741 3.6356,-1.13612 1.89355,-0.45445 4.31728,-0.60594 z"
         style="font-style:normal;font-variant:normal;font-weight:normal;font-stretch:normal;font-family:'Just Die Already';-inkscape-font-specification:'Just Die Already';fill:#ffffff;fill-opacity:1;stroke-width:1.89354181"
         id="path873-5-7"
         inkscape:connector-curvature="0" />
      <path
         d="m 523.02707,60.46529 c 2.37324,0.05049 4.64549,0.07574 6.81675,0.07574 h 3.2569 c 3.08016,-0.05049 6.33705,-0.07574 9.77067,-0.07574 0.60593,0 1.23711,-0.151483 1.89354,-0.45445 0.65643,-0.353461 1.26237,-0.782664 1.8178,-1.287609 0.60593,-0.555439 1.13613,-1.136125 1.59058,-1.742058 0.45445,-0.605933 0.78266,-1.18662 0.98464,-1.742059 0.40395,-1.110877 0.60593,-2.297496 0.60593,-3.559856 v -0.45445 c -0.0505,-1.413847 -0.32818,-2.701457 -0.83315,-3.86283 -0.50495,-1.161373 -1.18662,-2.120767 -2.04503,-2.87818 -0.80791,-0.807913 -1.74206,-1.21187 -2.80244,-1.21187 -1.46434,0 -3.08016,0.02523 -4.84747,0.0757 h -5.4534 c -1.86829,0 -3.71134,0.02523 -5.52914,0.0757 h -4.99895 c -0.0505,0 -0.10096,0.631183 -0.15149,1.89355 0,1.26236 -0.0252,2.80244 -0.0757,4.62024 v 5.529141 z m 22.04083,7.952876 c 2.57522,4.594995 5.25143,9.215238 8.02862,13.860727 2.77719,4.594995 5.35241,9.114248 7.72565,13.55776 h -9.089 c -0.20198,-0.302967 -0.65643,-0.984642 -1.36335,-2.045025 -0.65643,-1.110878 -1.46434,-2.423734 -2.42374,-3.938568 -0.9089,-1.565328 -1.94403,-3.282139 -3.1054,-5.150434 l -3.33264,-5.604884 c -1.11088,-1.918789 -2.17126,-3.761836 -3.18115,-5.529142 -1.00989,-1.767306 -1.86829,-3.332634 -2.57522,-4.695984 H 523.2543 c -0.20198,3.080161 -0.30297,6.210817 -0.30297,9.391968 0,1.312855 0.0252,2.625711 0.0757,3.938567 0.0505,2.272251 0.0757,4.544501 0.0757,6.816751 0,2.27225 -0.0252,4.5445 -0.0757,6.816751 h -8.40732 c 0,-27.444818 0.14323,-28.118559 0.15148,-47.565775 0.0505,-4.5445 0.0757,-8.962763 0.0757,-13.25479 h 26.73681 c 2.17127,0 4.24154,0.378707 6.21082,1.13612 2.01978,0.75742 3.78709,1.817803 5.30192,3.18115 1.51483,1.363353 2.70145,2.979177 3.55986,4.84747 0.9089,1.8178 1.36335,3.787083 1.36335,5.90785 0,2.272253 -0.32821,4.418268 -0.98464,6.438045 -0.60594,2.019778 -1.48959,3.837578 -2.65096,5.4534 -1.11088,1.565328 -2.47423,2.903431 -4.09005,4.014309 -1.56533,1.110878 -3.30739,1.918789 -5.22618,2.423734 z"
         style="font-style:normal;font-variant:normal;font-weight:normal;font-stretch:normal;font-family:'Just Die Already';-inkscape-font-specification:'Just Die Already';fill:#ffffff;fill-opacity:1;stroke-width:1.89354181"
         id="path875-9-9"
         inkscape:connector-curvature="0"
         sodipodi:nodetypes="cscsccccscccscscsccccccccccccsccscsccccscccsccccc" />
      <path
         d="m 568.60106,35.016088 h 8.25585 v 52.261755 l 32.56892,-0.07574 v 8.786034 H 568.44958 V 35.697759 q 0,-0.60593 0.15148,-0.681671 z"
         style="font-style:normal;font-variant:normal;font-weight:normal;font-stretch:normal;font-family:'Just Die Already';-inkscape-font-specification:'Just Die Already';fill:#ffffff;fill-opacity:1;stroke-width:1.89354181"
         id="path877-5-1"
         inkscape:connector-curvature="0" />
      <path
         d="m 624.4913,43.196188 v 44.536105 h 14.46666 q 4.09006,0 7.64991,-1.8178 3.55986,-1.8178 6.13508,-4.847467 2.65096,-3.105409 4.09005,-7.043976 1.51483,-4.014309 1.51483,-8.331584 0,-5.301918 -1.89354,-9.391968 -1.89354,-4.16579 -4.77172,-6.96823 -2.27225,-2.27225 -4.99895,-3.48412 -2.7267,-1.28761 -6.13508,-1.89354 -3.33263,-0.60594 -7.2712,-0.68168 z m -8.1801,-8.10436 q 20.07155,-0.22722 24.38882,0.37871 5.15044,0.75742 9.24049,2.87818 4.16579,2.04503 7.34694,5.15044 1.89354,1.8178 3.55986,4.16579 1.74206,2.27225 3.02967,4.99895 1.2876,2.7267 2.04502,5.90785 0.83316,3.18115 0.83316,6.665268 v 0.530191 q 0,4.241534 -1.06038,8.028618 -1.13613,4.014309 -3.10541,7.346943 -1.96929,3.332633 -4.62024,5.983592 -2.65096,2.575217 -5.60489,4.468759 -3.25689,2.045025 -7.34694,3.18115 -4.01431,1.136125 -8.63455,1.211867 -3.10541,0.07574 -6.3623,0.07574 h -3.33264 q -5.15043,-0.07574 -10.60383,-0.07574 V 35.697758 q 0,-0.60593 0.22722,-0.60593 z"
         style="font-style:normal;font-variant:normal;font-weight:normal;font-stretch:normal;font-family:'Just Die Already';-inkscape-font-specification:'Just Die Already';fill:#ffffff;fill-opacity:1;stroke-width:1.89354181"
         id="path879-4-4"
         inkscape:connector-curvature="0" />
    </g>
  </g>
</svg>
